<svg id="CTA" xmlns="http://www.w3.org/2000/svg" viewBox="0 0 120 32"><defs><style>.cls-1{fill:#030;}.cls-2{fill:#fff;}</style></defs><title>CTA for MK</title><rect class="cls-1" width="120" height="32" rx="1" ry="1"/><path class="cls-2" d="M499.25,368.06a6.17,6.17,0,0,1-2.46-1.19,2.28,2.28,0,0,1-.77-1.75,2.41,2.41,0,0,1,.94-1.94,3.73,3.73,0,0,1,2.44-.77,4.08,4.08,0,0,1,1.83.4,3,3,0,0,1,1.24,1.09,2.8,2.8,0,0,1,.44,1.52H501.6A1.82,1.82,0,0,0,501,364a2.34,2.34,0,0,0-1.62-.52,2.39,2.39,0,0,0-1.51.43,1.43,1.43,0,0,0-.54,1.19,1.28,1.28,0,0,0,.52,1,5,5,0,0,0,1.76.77,8.25,8.25,0,0,1,1.94.77,3,3,0,0,1,1,1,2.51,2.51,0,0,1,.34,1.32,2.32,2.32,0,0,1-.94,1.94,4,4,0,0,1-2.52.73,4.68,4.68,0,0,1-1.91-.39,3.22,3.22,0,0,1-1.37-1.08,2.62,2.62,0,0,1-.48-1.55H497a1.71,1.71,0,0,0,.67,1.43,2.81,2.81,0,0,0,1.78.52,2.58,2.58,0,0,0,1.59-.42,1.38,1.38,0,0,0,.55-1.16,1.35,1.35,0,0,0-.51-1.13A5.89,5.89,0,0,0,499.25,368.06Z" transform="translate(-473 -351)"/><path class="cls-2" d="M512.62,372.5H511.3v-4.6h-5v4.6H505v-10h1.31v4.28h5v-4.28h1.32Z" transform="translate(-473 -351)"/><path class="cls-2" d="M523,367.84a6.16,6.16,0,0,1-.49,2.55,3.73,3.73,0,0,1-1.39,1.66,3.84,3.84,0,0,1-2.11.57,3.72,3.72,0,0,1-3.5-2.22,5.92,5.92,0,0,1-.52-2.48v-.72a6.08,6.08,0,0,1,.5-2.54,3.92,3.92,0,0,1,5.61-1.69,3.72,3.72,0,0,1,1.41,1.67,6.19,6.19,0,0,1,.49,2.55Zm-1.31-.64a4.47,4.47,0,0,0-.71-2.72,2.34,2.34,0,0,0-2-.95,2.32,2.32,0,0,0-2,.95,4.37,4.37,0,0,0-.74,2.63v.73a4.46,4.46,0,0,0,.72,2.7,2.53,2.53,0,0,0,4,.05,4.44,4.44,0,0,0,.72-2.66Z" transform="translate(-473 -351)"/><path class="cls-2" d="M526.59,368.6v3.9h-1.31v-10h3.67a3.69,3.69,0,0,1,2.56.83,2.83,2.83,0,0,1,.93,2.21,2.79,2.79,0,0,1-.91,2.23,3.85,3.85,0,0,1-2.59.78Zm0-1.07h2.36a2.36,2.36,0,0,0,1.61-.5,1.81,1.81,0,0,0,.56-1.43,1.88,1.88,0,0,0-.56-1.42,2.21,2.21,0,0,0-1.54-.55h-2.43Z" transform="translate(-473 -351)"/><path class="cls-2" d="M545.92,372.5H544.6l-5-7.67v7.67h-1.32v-10h1.32l5,7.7v-7.7h1.31Z" transform="translate(-473 -351)"/><path class="cls-2" d="M556.26,367.84a6.16,6.16,0,0,1-.49,2.55,3.73,3.73,0,0,1-1.39,1.66,3.84,3.84,0,0,1-2.11.57,3.72,3.72,0,0,1-3.5-2.22,5.92,5.92,0,0,1-.52-2.48v-.72a6.08,6.08,0,0,1,.5-2.54,3.92,3.92,0,0,1,5.61-1.69,3.72,3.72,0,0,1,1.41,1.67,6.19,6.19,0,0,1,.49,2.55ZM555,367.2a4.47,4.47,0,0,0-.71-2.72,2.34,2.34,0,0,0-2-.95,2.32,2.32,0,0,0-2,.95,4.37,4.37,0,0,0-.74,2.63v.73a4.46,4.46,0,0,0,.72,2.7,2.53,2.53,0,0,0,4,.05,4.44,4.44,0,0,0,.72-2.66Z" transform="translate(-473 -351)"/><path class="cls-2" d="M560.72,369.36l.19,1.31.28-1.18,2-6.95h1.11l1.92,6.95.27,1.2.21-1.34,1.54-6.81h1.32l-2.41,10h-1.2l-2.05-7.25-.16-.76-.16.76-2.13,7.25h-1.2l-2.41-10h1.31Z" transform="translate(-473 -351)"/></svg>