<svg id="art" xmlns="http://www.w3.org/2000/svg" viewBox="0 0 428.54 323.29"><defs><style>.cls-1{fill:#fff;}.cls-2{fill:#ccc;}.cls-3{fill:#ededed;}</style></defs><title>logo5</title><g id="logotype_1line" data-name="logotype 1line"><path class="cls-1" d="M95.16,348,115.3,395.7,135.52,348h6.15V402h-4.61V378.51l.38-24.13L117.1,402h-3.56L93.29,354.56l.38,23.8V402H89.05V348Z" transform="translate(-89.05 -79.5)"/><path class="cls-1" d="M154.19,350.27a2.9,2.9,0,0,1,3.08-3,3,3,0,0,1,2.27.87,2.93,2.93,0,0,1,.84,2.12,2.86,2.86,0,0,1-.84,2.1,3.05,3.05,0,0,1-2.27.85,3,3,0,0,1-2.25-.85A2.9,2.9,0,0,1,154.19,350.27ZM159.48,402H155V361.88h4.5Z" transform="translate(-89.05 -79.5)"/><path class="cls-1" d="M186.67,399a11.93,11.93,0,0,0,7.86-2.62,9.18,9.18,0,0,0,3.43-6.78h4.31a12.5,12.5,0,0,1-2.33,6.7,14.53,14.53,0,0,1-5.68,4.73,17.28,17.28,0,0,1-7.59,1.71q-8,0-12.66-5.49t-4.67-14.78v-1.34a24.89,24.89,0,0,1,2.1-10.51,16.07,16.07,0,0,1,6-7.05,16.75,16.75,0,0,1,9.17-2.49,15.74,15.74,0,0,1,11,3.94,14.29,14.29,0,0,1,4.63,10.36H198a10.88,10.88,0,0,0-3.43-7.61,12.32,12.32,0,0,0-17.33,1.45q-3.36,4.34-3.36,12.18v1.3q0,7.69,3.36,12A11.31,11.31,0,0,0,186.67,399Z" transform="translate(-89.05 -79.5)"/><path class="cls-1" d="M230,365.66a17,17,0,0,0-3-.26,11,11,0,0,0-7.11,2.32,12.69,12.69,0,0,0-4.14,6.74V402h-4.46V361.88h4.39l.07,6.39a11.94,11.94,0,0,1,11.44-7.13,7.46,7.46,0,0,1,3,.48Z" transform="translate(-89.05 -79.5)"/><path class="cls-1" d="M233.58,381.37a23.44,23.44,0,0,1,2.27-10.43,17.17,17.17,0,0,1,6.41-7.22,17.4,17.4,0,0,1,9.39-2.58,16.77,16.77,0,0,1,13.13,5.63q5,5.63,5,14.91v.93a23.65,23.65,0,0,1-2.27,10.49,16.82,16.82,0,0,1-6.39,7.18,17.66,17.66,0,0,1-9.41,2.52,16.78,16.78,0,0,1-13.11-5.62q-5-5.62-5-14.91Zm4.5,1.22q0,7.2,3.77,11.83a12.83,12.83,0,0,0,19.73,0q3.77-4.62,3.77-12.2v-.85a20.27,20.27,0,0,0-1.73-8.43,13.76,13.76,0,0,0-4.84-5.92,12.46,12.46,0,0,0-7.13-2.1,12,12,0,0,0-9.79,4.66q-3.79,4.66-3.79,12.2Z" transform="translate(-89.05 -79.5)"/><path class="cls-1" d="M291.49,373.61l-8.74,8V402h-2V348h2v31.26l9-8.72L314.4,348h2.93L293,372.23,319.2,402h-2.62Z" transform="translate(-89.05 -79.5)"/><path class="cls-1" d="M327.86,349.33a2,2,0,0,1,.6-1.47,2,2,0,0,1,1.46-.61,2,2,0,0,1,1.48.61,2,2,0,0,1,.62,1.47,1.93,1.93,0,0,1-.62,1.45,2.06,2.06,0,0,1-1.48.59,2,2,0,0,1-1.46-.59A2,2,0,0,1,327.86,349.33ZM330.94,402h-2V361.88h2Z" transform="translate(-89.05 -79.5)"/><path class="cls-1" d="M348.79,351v10.84H358v2h-9.23v28.54q0,4.27,1.41,6.32t4.71,2a29.4,29.4,0,0,0,4-.33l.34,1.89a14,14,0,0,1-4.24.45q-4.43,0-6.34-2.43t-2-7.67v-28.8h-7.5v-2h7.5V351Z" transform="translate(-89.05 -79.5)"/><path class="cls-1" d="M382.32,400.79a14,14,0,0,0,9.09-2.9,10.71,10.71,0,0,0,3.92-8h2a12.52,12.52,0,0,1-4.54,9.38,15.81,15.81,0,0,1-10.5,3.54,14.83,14.83,0,0,1-12.09-5.46q-4.48-5.46-4.48-14.81v-1.34q0-9.13,4.48-14.59a14.75,14.75,0,0,1,12-5.46A15.22,15.22,0,0,1,392.89,365a13.92,13.92,0,0,1,4.46,10.17h-2a12.09,12.09,0,0,0-3.84-8.71,13.14,13.14,0,0,0-9.24-3.29A12.82,12.82,0,0,0,371.61,368q-3.85,4.84-3.84,13.46v1.3q0,8.43,3.88,13.24A13,13,0,0,0,382.32,400.79Z" transform="translate(-89.05 -79.5)"/><path class="cls-1" d="M409.54,371.23a16.82,16.82,0,0,1,5.85-7.39,14.55,14.55,0,0,1,8.55-2.71q6.53,0,9.69,3.66t3.21,11V402h-2V375.79q0-6.45-2.66-9.55t-8.33-3.1a12.69,12.69,0,0,0-9.09,3.69,18.68,18.68,0,0,0-5.19,9.51V402h-2V345h2Z" transform="translate(-89.05 -79.5)"/><path class="cls-1" d="M464.15,402.79a16.44,16.44,0,0,1-9-2.62A18,18,0,0,1,448.7,393a22,22,0,0,1-2.33-10.14v-1.67A23.1,23.1,0,0,1,448.62,371a17.69,17.69,0,0,1,6.19-7.24,15.29,15.29,0,0,1,8.59-2.6,14.26,14.26,0,0,1,11.1,4.79q4.31,4.79,4.31,12.59v2.12H448.4v2.19a20,20,0,0,0,2.08,9.06,16.26,16.26,0,0,0,5.74,6.54,14.29,14.29,0,0,0,7.93,2.37,16.28,16.28,0,0,0,7-1.35,14.13,14.13,0,0,0,5.08-4.15l1.42,1Q473.07,402.79,464.15,402.79Zm-.75-39.65a13.31,13.31,0,0,0-10.05,4.36,18.49,18.49,0,0,0-4.84,11.12h28.28v-.48a16.82,16.82,0,0,0-1.74-7.59,13.36,13.36,0,0,0-4.8-5.46A12.47,12.47,0,0,0,463.4,363.14Z" transform="translate(-89.05 -79.5)"/><path class="cls-1" d="M490.29,371.23a16.82,16.82,0,0,1,5.85-7.39,14.55,14.55,0,0,1,8.55-2.71q6.53,0,9.69,3.66t3.21,11V402h-2V375.79q0-6.45-2.66-9.55t-8.33-3.1a12.69,12.69,0,0,0-9.09,3.69,18.68,18.68,0,0,0-5.19,9.51V402h-2V361.88h2Z" transform="translate(-89.05 -79.5)"/></g><g id="Vector_Logo_overlap_heavy" data-name="Vector Logo overlap heavy"><g id="_Group_R" data-name="&lt;Group&gt;R"><polygon id="_Path_white" data-name="&lt;Path&gt; white" class="cls-1" points="335.45 0 334.45 0 301.96 145.98 333.95 237.5 418.45 237.5 335.45 0"/><polygon id="_Path_shad" data-name="&lt;Path&gt;shad" class="cls-2" points="292.7 119.47 302.4 147.22 335.45 0 292.7 119.47"/><polygon id="_Path_gray" data-name="&lt;Path&gt; gray" class="cls-3" points="251.95 0 250.95 0 167.95 237.5 252.45 237.5 293.7 119.47 335.45 0 251.95 0"/></g><g id="_Group_L" data-name="&lt;Group&gt;L"><polygon id="_Path_white-2" data-name="&lt;Path&gt; white" class="cls-1" points="169.45 0 168.45 0 128.35 124.2 167.95 237.5 252.45 237.5 169.45 0"/><polygon id="_Path_shad-2" data-name="&lt;Path&gt;shad" class="cls-2" points="118.14 94.98 136.4 147.22 169.45 0 118.14 94.98"/><polygon id="_Path_gray-2" data-name="&lt;Path&gt; gray" class="cls-3" points="85.95 0 84.95 0 1.95 237.5 86.45 237.5 127.7 119.47 169.45 0 85.95 0"/></g></g></svg>